<?xml version="1.0" encoding="utf-8"?>
<!-- Generator: Adobe Illustrator 22.0.0, SVG Export Plug-In . SVG Version: 6.00 Build 0)  -->
<svg version="1.1" id="Layer_1" xmlns="http://www.w3.org/2000/svg" xmlns:xlink="http://www.w3.org/1999/xlink" x="0px" y="0px"
	 viewBox="0 0 411.7 411.5" style="enable-background:new 0 0 411.7 411.5;" xml:space="preserve">
<style type="text/css">
	.st0{fill:#1d7791;}
</style>
<g>
	<path class="st0" d="M205.4,150.2c-30.4,0-55.1,24.7-55.1,55.1c0,30.4,24.7,55.1,55.1,55.1s55.1-24.7,55.1-55.1
		C260.6,175,235.8,150.2,205.4,150.2z M205.4,250.5c-24.9,0-45.1-20.2-45.1-45.1c0-24.9,20.3-45.1,45.1-45.1
		c24.9,0,45.1,20.2,45.1,45.1C250.6,230.2,230.3,250.5,205.4,250.5z M205.4,150.2c-30.4,0-55.1,24.7-55.1,55.1
		c0,30.4,24.7,55.1,55.1,55.1s55.1-24.7,55.1-55.1C260.6,175,235.8,150.2,205.4,150.2z M205.4,250.5c-24.9,0-45.1-20.2-45.1-45.1
		c0-24.9,20.3-45.1,45.1-45.1c24.9,0,45.1,20.2,45.1,45.1C250.6,230.2,230.3,250.5,205.4,250.5z M206,23.2
		c-100.8,0-182.7,81.8-182.7,182.4c0,42.8,15.4,84.5,43.4,117.4c26.8,31.5,63.3,53,103.5,61v-34.5h-32.8c-10.8,0-16.6-5.8-16.6-16.6
		v-35.2c0-10.9,5.7-16.6,16.6-16.6H240c14.9,0,16.9,8.9,16.9,16.6v82.8c36.4-10.8,69.3-33.1,92.9-63.5c24.9-32,38.6-71.5,38.6-111.4
		C388.4,105.1,306.6,23.2,206,23.2z M205.4,269.5c-35.4,0-64.1-28.8-64.1-64.1c0-35.4,28.8-64.1,64.1-64.1
		c35.4,0,64.1,28.8,64.1,64.1C269.6,240.7,240.8,269.5,205.4,269.5z M205.4,150.2c-30.4,0-55.1,24.7-55.1,55.1
		c0,30.4,24.7,55.1,55.1,55.1s55.1-24.7,55.1-55.1C260.6,175,235.8,150.2,205.4,150.2z M205.4,250.5c-24.9,0-45.1-20.2-45.1-45.1
		c0-24.9,20.3-45.1,45.1-45.1c24.9,0,45.1,20.2,45.1,45.1C250.6,230.2,230.3,250.5,205.4,250.5z M205.4,150.2
		c-30.4,0-55.1,24.7-55.1,55.1c0,30.4,24.7,55.1,55.1,55.1s55.1-24.7,55.1-55.1C260.6,175,235.8,150.2,205.4,150.2z M205.4,250.5
		c-24.9,0-45.1-20.2-45.1-45.1c0-24.9,20.3-45.1,45.1-45.1c24.9,0,45.1,20.2,45.1,45.1C250.6,230.2,230.3,250.5,205.4,250.5z
		 M205.4,150.2c-30.4,0-55.1,24.7-55.1,55.1c0,30.4,24.7,55.1,55.1,55.1s55.1-24.7,55.1-55.1C260.6,175,235.8,150.2,205.4,150.2z
		 M205.4,250.5c-24.9,0-45.1-20.2-45.1-45.1c0-24.9,20.3-45.1,45.1-45.1c24.9,0,45.1,20.2,45.1,45.1
		C250.6,230.2,230.3,250.5,205.4,250.5z"/>
	<path class="st0" d="M206,0C92.4,0,0,92.3,0,205.7c0,102.1,76.2,189.6,177.2,203.6l16.1,2.2v-85.2c0,0-39.9,0-49.4,0
		c0-7.1,0-15.3,0-21.9c11.8,0,79.3,0,89.7,0c0,11.5,0,106,0,106l17.3-3.9c93.1-21,160.7-105.5,160.7-200.9C411.7,92.3,319.4,0,206,0
		z M248.9,397.4l-5.8,1.3V297.8c0,0,0-0.5,0-1.1c0-0.7,0.1-1.4,0.3-1.5c-0.3,0-3.3-0.3-3.3-0.3H137.3c0,0-2.5,0.3-2.5,0.1
		c0,0.1-0.3,2.7-0.3,2.7V333c0,0,0.2,1.4,0.2,2.1c0,0.3,0,0.4-0.1,0.5c0.1,0,2.7,0.3,2.7,0.3h46.6v64.9l-5.4-0.8
		C82.1,386.6,9.4,303.1,9.4,205.7C9.4,97.5,97.6,9.4,206,9.4c108.2,0,196.3,88,196.3,196.2C402.2,296.7,337.7,377.3,248.9,397.4z"/>
</g>
</svg>
